<?xml version="1.0" encoding="UTF-8" standalone="no"?>
<svg
   width="1500"
   height="500"
   viewBox="0 0 1500 500"
   fill="none"
   version="1.1"
   id="svg5"
   sodipodi:docname="Banner.svg"
   inkscape:version="1.3.2 (091e20e, 2023-11-25, custom)"
   xmlns:inkscape="http://www.inkscape.org/namespaces/inkscape"
   xmlns:sodipodi="http://sodipodi.sourceforge.net/DTD/sodipodi-0.dtd"
   xmlns="http://www.w3.org/2000/svg"
   xmlns:svg="http://www.w3.org/2000/svg">
  <sodipodi:namedview
     id="namedview5"
     pagecolor="#ffffff"
     bordercolor="#000000"
     borderopacity="0.25"
     inkscape:showpageshadow="2"
     inkscape:pageopacity="0.0"
     inkscape:pagecheckerboard="0"
     inkscape:deskcolor="#d1d1d1"
     inkscape:zoom="0.66933333"
     inkscape:cx="750"
     inkscape:cy="250.249"
     inkscape:window-width="1920"
     inkscape:window-height="991"
     inkscape:window-x="-9"
     inkscape:window-y="-9"
     inkscape:window-maximized="1"
     inkscape:current-layer="svg5" />
  <path
     d="M682.59 175.007C689.843 167.44 698.911 163.656 709.792 163.656C715.077 163.656 719.999 164.692 724.559 166.766C729.222 168.735 733.264 171.483 736.683 175.007C740.207 178.532 742.953 182.679 744.922 187.447C746.891 192.112 747.875 197.14 747.875 202.531C747.875 207.921 746.891 213.001 744.922 217.769C743.056 222.434 740.414 226.529 736.994 230.054C733.574 233.579 729.533 236.378 724.87 238.451C720.206 240.421 715.18 241.405 709.792 241.405C704.3 241.405 699.222 240.421 694.559 238.451C689.999 236.378 686.009 233.579 682.59 230.054C679.17 226.529 676.475 222.434 674.507 217.769C672.641 213.001 671.709 207.921 671.709 202.531C671.709 191.542 675.336 182.368 682.59 175.007ZM709.792 176.718C702.538 176.718 696.683 179.102 692.227 183.871C687.875 188.639 685.698 194.859 685.698 202.531C685.698 210.202 687.875 216.422 692.227 221.19C696.683 225.959 702.538 228.343 709.792 228.343C717.149 228.343 723.004 225.959 727.357 221.19C731.709 216.318 733.885 210.098 733.885 202.531C733.885 194.963 731.709 188.795 727.357 184.026C723.004 179.154 717.149 176.718 709.792 176.718ZM764.209 210.306V131.001H778.199V210.306C778.199 214.038 778.614 217.096 779.443 219.48C780.375 221.761 781.774 223.419 783.64 224.456C785.505 225.389 787.318 226.011 789.08 226.322C790.842 226.633 793.173 226.788 796.075 226.788V239.85C784.469 239.85 776.23 237.622 771.36 233.164C766.593 228.706 764.209 221.087 764.209 210.306ZM826.313 239.85H812.634V178.273H799.888L806.105 165.211H826.313V239.85ZM812.012 149.661C810.665 147.899 809.991 145.981 809.991 143.907C809.991 141.834 810.665 139.968 812.012 138.309C813.359 136.547 815.432 135.666 818.23 135.666C821.028 135.666 823.1 136.547 824.447 138.309C825.795 139.968 826.468 141.834 826.468 143.907C826.468 145.981 825.795 147.899 824.447 149.661C823.1 151.32 821.028 152.149 818.23 152.149C815.432 152.149 813.359 151.32 812.012 149.661ZM847.867 165.211H916.417C923.775 165.211 929.63 166.61 933.982 169.409C938.438 172.208 941.34 175.837 942.687 180.294C944.138 184.752 944.863 190.091 944.863 196.311V239.85H931.184V196.311C931.184 188.225 928.749 182.886 923.878 180.294C921.391 178.947 916.365 178.273 908.8 178.273H902.427V239.85H888.749V178.273H861.546V239.85H847.867V165.211ZM972.07 175.007C979.324 167.44 988.391 163.656 999.272 163.656C1004.56 163.656 1009.48 164.692 1014.04 166.766C1018.7 168.735 1022.74 171.483 1026.16 175.007C1029.69 178.532 1032.43 182.679 1034.4 187.447C1036.37 192.112 1037.36 197.14 1037.36 202.531C1037.36 207.921 1036.37 213.001 1034.4 217.769C1032.54 222.434 1029.89 226.529 1026.47 230.054C1023.05 233.579 1019.01 236.378 1014.35 238.451C1009.69 240.421 1004.66 241.405 999.272 241.405C993.78 241.405 988.702 240.421 984.039 238.451C979.479 236.378 975.489 233.579 972.07 230.054C968.65 226.529 965.956 222.434 963.987 217.769C962.121 213.001 961.189 207.921 961.189 202.531C961.189 191.542 964.816 182.368 972.07 175.007ZM999.272 176.718C992.018 176.718 986.163 179.102 981.707 183.871C977.355 188.639 975.178 194.859 975.178 202.531C975.178 210.202 977.355 216.422 981.707 221.19C986.163 225.959 992.018 228.343 999.272 228.343C1006.63 228.343 1012.48 225.959 1016.84 221.19C1021.19 216.318 1023.37 210.098 1023.37 202.531C1023.37 194.963 1021.19 188.795 1016.84 184.026C1012.48 179.154 1006.63 176.718 999.272 176.718ZM1053.69 131.001H1067.68V202.531C1067.68 210.72 1069.75 217.096 1073.9 221.657C1078.15 226.115 1083.95 228.343 1091.31 228.343C1098.97 228.343 1104.99 226.166 1109.34 221.812C1113.69 217.355 1115.87 210.928 1115.87 202.531C1115.87 194.548 1113.48 188.276 1108.72 183.715C1104.05 179.05 1097.89 176.718 1090.22 176.718C1083.69 176.718 1078.04 178.584 1073.28 182.316V168.321C1078.97 165.211 1085.14 163.656 1091.77 163.656C1102.76 163.656 1111.82 167.232 1118.98 174.385C1126.23 181.435 1129.86 190.816 1129.86 202.531C1129.86 214.867 1126.07 224.456 1118.51 231.298C1111.05 238.036 1101.62 241.405 1090.22 241.405C1079.34 241.405 1070.53 237.881 1063.79 230.831C1057.06 223.782 1053.69 214.348 1053.69 202.531V131.001ZM1208 239.85H1181.11C1169.61 239.85 1161.37 238.14 1156.39 234.719C1151.94 231.713 1149.09 228.136 1147.84 223.989C1146.7 219.739 1146.13 214.193 1146.13 207.351V165.211H1159.81V207.196C1159.81 209.062 1159.86 210.668 1159.97 212.016C1160.07 213.26 1160.43 214.919 1161.06 216.992C1161.68 218.962 1162.56 220.62 1163.7 221.968C1164.84 223.212 1166.5 224.352 1168.67 225.389C1170.85 226.322 1173.49 226.788 1176.6 226.788H1194.32V165.211H1208V239.85Z"
     fill="#F2994A"
     id="path1" />
  <path
     d="M706.087 300.133C708.989 300.133 711.631 300.936 714.015 302.543C716.45 304.098 718.108 306.56 718.989 309.929L717.978 310.629L718.367 309.152C719.04 307.441 720.206 305.912 721.864 304.565C723.574 303.217 725.465 302.154 727.538 301.377C729.662 300.548 731.709 300.133 733.678 300.133C736.787 300.133 739.352 300.807 741.372 302.154C743.393 303.502 744.87 305.316 745.802 307.597C746.787 309.826 747.279 312.366 747.279 315.216V337.841C747.279 338.256 747.124 338.619 746.813 338.93C746.554 339.241 746.191 339.396 745.725 339.396C745.258 339.396 744.87 339.241 744.559 338.93C744.3 338.619 744.17 338.256 744.17 337.841V315.527C744.17 313.247 743.782 311.173 743.004 309.307C742.279 307.39 741.113 305.886 739.507 304.798C737.953 303.658 735.906 303.087 733.367 303.087C731.139 303.087 728.963 303.658 726.838 304.798C724.714 305.886 722.952 307.39 721.553 309.307C720.206 311.173 719.533 313.247 719.533 315.527V337.841C719.533 338.256 719.377 338.619 719.066 338.93C718.807 339.241 718.445 339.396 717.978 339.396C717.512 339.396 717.123 339.241 716.812 338.93C716.553 338.619 716.424 338.256 716.424 337.841V315.139C716.424 312.91 716.061 310.888 715.336 309.074C714.662 307.26 713.574 305.809 712.071 304.72C710.569 303.632 708.574 303.087 706.087 303.087C703.911 303.087 701.786 303.632 699.714 304.72C697.693 305.809 696.009 307.26 694.662 309.074C693.315 310.888 692.641 312.91 692.641 315.139V337.841C692.641 338.256 692.486 338.619 692.175 338.93C691.864 339.241 691.501 339.396 691.087 339.396C690.621 339.396 690.232 339.241 689.921 338.93C689.662 338.619 689.532 338.256 689.532 337.841V302.154C689.532 301.74 689.688 301.377 689.999 301.066C690.31 300.755 690.672 300.599 691.087 300.599C691.553 300.599 691.916 300.755 692.175 301.066C692.486 301.377 692.641 301.74 692.641 302.154V310.629L690.31 314.594C690.31 312.78 690.75 311.018 691.631 309.307C692.512 307.597 693.678 306.068 695.128 304.72C696.631 303.321 698.315 302.206 700.18 301.377C702.097 300.548 704.066 300.133 706.087 300.133ZM789.494 300.599C789.961 300.599 790.324 300.755 790.583 301.066C790.893 301.377 791.049 301.74 791.049 302.154V324.78C791.049 329.807 789.624 333.591 786.774 336.131C783.976 338.619 780.246 339.863 775.582 339.863C770.971 339.863 767.24 338.619 764.391 336.131C761.593 333.591 760.194 329.807 760.194 324.78V302.154C760.194 301.74 760.349 301.377 760.66 301.066C760.971 300.755 761.334 300.599 761.748 300.599C762.214 300.599 762.577 300.755 762.836 301.066C763.147 301.377 763.302 301.74 763.302 302.154V324.78C763.302 328.719 764.391 331.725 766.567 333.799C768.795 335.872 771.8 336.908 775.582 336.908C779.417 336.908 782.422 335.872 784.598 333.799C786.826 331.725 787.94 328.719 787.94 324.78V302.154C787.94 301.74 788.07 301.377 788.329 301.066C788.64 300.755 789.028 300.599 789.494 300.599ZM801.813 333.177C801.451 332.555 801.269 332.062 801.269 331.699C801.321 331.285 801.528 330.948 801.891 330.689C802.15 330.429 802.487 330.326 802.901 330.378C803.368 330.378 803.756 330.559 804.067 330.922C805.414 332.84 807.124 334.395 809.197 335.587C811.321 336.779 813.808 337.375 816.658 337.375C818.368 337.375 820 337.09 821.554 336.52C823.161 335.95 824.456 335.094 825.44 333.954C826.477 332.814 826.995 331.414 826.995 329.756C826.995 327.993 826.503 326.594 825.518 325.557C824.534 324.469 823.264 323.613 821.71 322.991C820.155 322.369 818.523 321.851 816.813 321.436C815 320.97 813.264 320.451 811.606 319.881C810 319.259 808.575 318.508 807.331 317.627C806.088 316.694 805.103 315.605 804.378 314.361C803.653 313.117 803.29 311.64 803.29 309.929C803.29 307.908 803.834 306.094 804.922 304.487C806.01 302.88 807.539 301.636 809.508 300.755C811.477 299.822 813.756 299.355 816.347 299.355C817.591 299.355 818.912 299.511 820.311 299.822C821.71 300.133 823.109 300.677 824.508 301.455C825.907 302.18 827.202 303.217 828.394 304.565C828.808 304.876 828.99 305.264 828.938 305.731C828.938 306.146 828.756 306.534 828.394 306.897C828.083 307.105 827.746 307.208 827.383 307.208C827.021 307.208 826.71 307.053 826.451 306.742C825.104 305.239 823.523 304.124 821.71 303.398C819.948 302.673 818.057 302.31 816.036 302.31C814.326 302.31 812.72 302.595 811.217 303.165C809.767 303.735 808.575 304.591 807.642 305.731C806.71 306.819 806.243 308.219 806.243 309.929C806.347 311.536 806.891 312.858 807.875 313.895C808.912 314.931 810.259 315.787 811.917 316.46C813.627 317.134 815.544 317.756 817.668 318.326C819.378 318.741 820.959 319.233 822.409 319.804C823.912 320.322 825.207 320.996 826.295 321.825C827.435 322.654 828.316 323.691 828.938 324.935C829.611 326.179 829.948 327.734 829.948 329.6C829.948 331.777 829.352 333.669 828.161 335.276C827.021 336.831 825.414 338.049 823.342 338.93C821.321 339.759 818.99 340.174 816.347 340.174C813.653 340.174 811.062 339.63 808.575 338.541C806.088 337.453 803.834 335.665 801.813 333.177ZM843.226 337.841C843.226 338.256 843.07 338.619 842.759 338.93C842.448 339.241 842.086 339.396 841.671 339.396C841.205 339.396 840.816 339.241 840.505 338.93C840.246 338.619 840.117 338.256 840.117 337.841V300.91C840.117 300.496 840.272 300.133 840.583 299.822C840.894 299.511 841.257 299.355 841.671 299.355C842.137 299.355 842.5 299.511 842.759 299.822C843.07 300.133 843.226 300.496 843.226 300.91V337.841ZM841.671 294.068C840.842 294.068 840.169 293.835 839.65 293.369C839.184 292.902 838.951 292.306 838.951 291.581V290.959C838.951 290.233 839.21 289.637 839.728 289.17C840.246 288.704 840.92 288.471 841.749 288.471C842.474 288.471 843.07 288.704 843.536 289.17C844.055 289.637 844.314 290.233 844.314 290.959V291.581C844.314 292.306 844.055 292.902 843.536 293.369C843.07 293.835 842.448 294.068 841.671 294.068ZM872.997 299.355C875.329 299.355 877.505 299.615 879.526 300.133C881.598 300.651 883.256 301.351 884.5 302.232C885.795 303.062 886.443 303.943 886.443 304.876C886.443 305.239 886.287 305.601 885.976 305.964C885.717 306.275 885.38 306.431 884.966 306.431C884.396 306.431 883.93 306.275 883.567 305.964C883.256 305.653 882.919 305.29 882.557 304.876C882.194 304.409 881.624 303.995 880.847 303.632C880.121 303.269 879.085 302.958 877.738 302.699C876.443 302.44 874.836 302.31 872.919 302.31C869.914 302.31 867.168 303.087 864.681 304.642C862.194 306.197 860.199 308.297 858.696 310.94C857.245 313.532 856.52 316.46 856.52 319.726C856.52 323.043 857.194 326.024 858.541 328.667C859.94 331.311 861.857 333.41 864.292 334.965C866.779 336.468 869.655 337.219 872.919 337.219C875.251 337.219 877.013 337.012 878.204 336.597C879.448 336.131 880.51 335.639 881.391 335.12C882.479 334.498 883.23 333.902 883.645 333.332C884.059 332.762 884.551 332.477 885.121 332.477C885.536 332.477 885.847 332.606 886.054 332.866C886.313 333.125 886.443 333.462 886.443 333.876C886.443 334.498 885.873 335.328 884.733 336.364C883.593 337.349 881.987 338.23 879.914 339.008C877.893 339.785 875.484 340.174 872.686 340.174C868.904 340.174 865.562 339.293 862.66 337.53C859.758 335.716 857.479 333.28 855.821 330.222C854.214 327.112 853.411 323.613 853.411 319.726C853.411 316.098 854.214 312.754 855.821 309.696C857.479 306.586 859.758 304.098 862.66 302.232C865.613 300.314 869.059 299.355 872.997 299.355ZM931.383 340.174C927.704 340.174 924.465 339.319 921.667 337.608C918.87 335.846 916.693 333.591 915.139 330.844C913.585 328.097 912.807 325.22 912.807 322.214C912.807 320.037 913.248 317.912 914.129 315.838C915.061 313.713 916.434 311.795 918.248 310.085C920.113 308.374 922.471 307.053 925.32 306.12L927.73 308.53C923.585 309.463 920.605 311.199 918.792 313.739C916.978 316.227 916.072 318.922 916.072 321.825C916.072 324.417 916.667 326.879 917.859 329.211C919.051 331.544 920.787 333.436 923.066 334.887C925.398 336.338 928.17 337.064 931.383 337.064C935.061 337.064 938.196 336.52 940.787 335.431C943.378 334.343 945.528 332.866 947.238 331C948.948 329.134 950.321 327.06 951.357 324.78C952.393 322.447 953.144 320.089 953.611 317.704C953.714 317.29 953.896 316.979 954.155 316.771C954.466 316.512 954.828 316.383 955.243 316.383C955.709 316.383 956.098 316.564 956.409 316.927C956.72 317.238 956.823 317.653 956.72 318.171C956.305 320.866 955.476 323.536 954.233 326.179C952.989 328.771 951.331 331.129 949.258 333.254C947.186 335.379 944.647 337.064 941.642 338.308C938.688 339.552 935.269 340.174 931.383 340.174ZM958.974 339.085C958.818 339.085 958.663 339.06 958.507 339.008C958.352 338.904 958.196 338.826 958.041 338.774C955.036 336.546 952.082 334.343 949.181 332.166C946.331 329.989 943.403 327.527 940.398 324.78C937.445 322.032 934.258 318.715 930.839 314.828C929.025 312.754 927.393 310.681 925.942 308.608C924.491 306.483 923.326 304.409 922.445 302.388C921.616 300.314 921.201 298.319 921.201 296.401C921.201 294.017 921.745 291.917 922.833 290.103C923.973 288.237 925.579 286.786 927.652 285.749C929.725 284.713 932.186 284.194 935.036 284.194C938.818 284.194 941.849 284.946 944.129 286.449C946.409 287.9 948.041 289.585 949.025 291.503C949.077 291.555 949.129 291.684 949.181 291.892C949.284 292.047 949.336 292.228 949.336 292.436C949.336 292.695 949.181 293.006 948.87 293.369C948.611 293.68 948.248 293.835 947.782 293.835C947.523 293.835 947.264 293.783 947.004 293.68C946.797 293.524 946.616 293.343 946.46 293.136C945.476 291.581 944.103 290.233 942.341 289.093C940.631 287.9 938.196 287.304 935.036 287.304C931.564 287.304 928.921 288.16 927.108 289.87C925.346 291.529 924.465 293.757 924.465 296.556C924.465 298.111 924.854 299.822 925.631 301.688C926.408 303.554 927.471 305.472 928.818 307.441C930.165 309.411 931.693 311.355 933.403 313.273C935.631 315.812 937.937 318.223 940.321 320.503C942.704 322.784 945.062 324.909 947.393 326.879C949.725 328.797 951.953 330.533 954.077 332.088C956.201 333.643 958.119 335.017 959.828 336.209C960.088 336.364 960.269 336.546 960.373 336.753C960.476 336.96 960.528 337.194 960.528 337.453C960.528 337.816 960.372 338.178 960.062 338.541C959.803 338.904 959.44 339.085 958.974 339.085ZM987.691 333.177C987.329 332.555 987.147 332.062 987.147 331.699C987.199 331.285 987.406 330.948 987.769 330.689C988.028 330.429 988.365 330.326 988.779 330.378C989.246 330.378 989.634 330.559 989.945 330.922C991.292 332.84 993.002 334.395 995.075 335.587C997.199 336.779 999.686 337.375 1002.54 337.375C1004.25 337.375 1005.88 337.09 1007.43 336.52C1009.04 335.95 1010.33 335.094 1011.32 333.954C1012.35 332.814 1012.87 331.414 1012.87 329.756C1012.87 327.993 1012.38 326.594 1011.4 325.557C1010.41 324.469 1009.14 323.613 1007.59 322.991C1006.03 322.369 1004.4 321.851 1002.69 321.436C1000.88 320.97 999.142 320.451 997.484 319.881C995.878 319.259 994.453 318.508 993.21 317.627C991.966 316.694 990.982 315.605 990.256 314.361C989.531 313.117 989.168 311.64 989.168 309.929C989.168 307.908 989.712 306.094 990.8 304.487C991.888 302.88 993.417 301.636 995.386 300.755C997.355 299.822 999.634 299.355 1002.23 299.355C1003.47 299.355 1004.79 299.511 1006.19 299.822C1007.59 300.133 1008.99 300.677 1010.39 301.455C1011.78 302.18 1013.08 303.217 1014.27 304.565C1014.69 304.876 1014.87 305.264 1014.82 305.731C1014.82 306.146 1014.63 306.534 1014.27 306.897C1013.96 307.105 1013.62 307.208 1013.26 307.208C1012.9 307.208 1012.59 307.053 1012.33 306.742C1010.98 305.239 1009.4 304.124 1007.59 303.398C1005.83 302.673 1003.94 302.31 1001.91 302.31C1000.2 302.31 998.598 302.595 997.096 303.165C995.645 303.735 994.453 304.591 993.521 305.731C992.588 306.819 992.121 308.219 992.121 309.929C992.225 311.536 992.769 312.858 993.754 313.895C994.79 314.931 996.137 315.787 997.795 316.46C999.505 317.134 1001.42 317.756 1003.55 318.326C1005.26 318.741 1006.84 319.233 1008.29 319.804C1009.79 320.322 1011.09 320.996 1012.17 321.825C1013.31 322.654 1014.19 323.691 1014.82 324.935C1015.49 326.179 1015.83 327.734 1015.83 329.6C1015.83 331.777 1015.23 333.669 1014.04 335.276C1012.9 336.831 1011.29 338.049 1009.22 338.93C1007.2 339.759 1004.87 340.174 1002.23 340.174C999.531 340.174 996.94 339.63 994.453 338.541C991.966 337.453 989.712 335.665 987.691 333.177ZM1061.59 319.804C1061.59 323.639 1060.76 327.112 1059.1 330.222C1057.45 333.28 1055.17 335.716 1052.26 337.53C1049.41 339.293 1046.15 340.174 1042.47 340.174C1038.84 340.174 1035.58 339.293 1032.68 337.53C1029.78 335.716 1027.47 333.28 1025.76 330.222C1024.1 327.112 1023.27 323.639 1023.27 319.804C1023.27 315.916 1024.1 312.443 1025.76 309.385C1027.47 306.275 1029.78 303.839 1032.68 302.077C1035.58 300.263 1038.84 299.355 1042.47 299.355C1046.15 299.355 1049.41 300.263 1052.26 302.077C1055.17 303.839 1057.45 306.275 1059.1 309.385C1060.76 312.443 1061.59 315.916 1061.59 319.804ZM1058.48 319.804C1058.48 316.434 1057.78 313.454 1056.38 310.862C1055.04 308.219 1053.15 306.146 1050.71 304.642C1048.33 303.087 1045.58 302.31 1042.47 302.31C1039.41 302.31 1036.67 303.087 1034.23 304.642C1031.8 306.146 1029.88 308.219 1028.48 310.862C1027.08 313.454 1026.38 316.434 1026.38 319.804C1026.38 323.121 1027.08 326.101 1028.48 328.745C1029.88 331.336 1031.8 333.41 1034.23 334.965C1036.67 336.468 1039.41 337.219 1042.47 337.219C1045.58 337.219 1048.33 336.468 1050.71 334.965C1053.15 333.41 1055.04 331.336 1056.38 328.745C1057.78 326.101 1058.48 323.121 1058.48 319.804ZM1101.06 300.599C1101.53 300.599 1101.89 300.755 1102.15 301.066C1102.46 301.377 1102.62 301.74 1102.62 302.154V324.78C1102.62 329.807 1101.19 333.591 1098.34 336.131C1095.55 338.619 1091.82 339.863 1087.15 339.863C1082.54 339.863 1078.81 338.619 1075.96 336.131C1073.16 333.591 1071.76 329.807 1071.76 324.78V302.154C1071.76 301.74 1071.92 301.377 1072.23 301.066C1072.54 300.755 1072.9 300.599 1073.32 300.599C1073.78 300.599 1074.15 300.755 1074.41 301.066C1074.72 301.377 1074.87 301.74 1074.87 302.154V324.78C1074.87 328.719 1075.96 331.725 1078.14 333.799C1080.36 335.872 1083.37 336.908 1087.15 336.908C1090.99 336.908 1093.99 335.872 1096.17 333.799C1098.4 331.725 1099.51 328.719 1099.51 324.78V302.154C1099.51 301.74 1099.64 301.377 1099.9 301.066C1100.21 300.755 1100.6 300.599 1101.06 300.599ZM1133.2 299.355C1136.46 299.355 1139.1 300.003 1141.13 301.299C1143.2 302.595 1144.7 304.357 1145.63 306.586C1146.62 308.815 1147.11 311.303 1147.11 314.05V337.841C1147.11 338.256 1146.95 338.619 1146.64 338.93C1146.33 339.241 1145.97 339.396 1145.56 339.396C1145.09 339.396 1144.7 339.241 1144.39 338.93C1144.13 338.619 1144 338.256 1144 337.841V314.361C1144 312.132 1143.61 310.111 1142.84 308.297C1142.11 306.483 1140.92 305.031 1139.26 303.943C1137.65 302.854 1135.53 302.31 1132.89 302.31C1130.61 302.31 1128.38 302.854 1126.2 303.943C1124.03 305.031 1122.21 306.483 1120.76 308.297C1119.36 310.111 1118.66 312.132 1118.66 314.361V337.841C1118.66 338.256 1118.51 338.619 1118.2 338.93C1117.89 339.241 1117.52 339.396 1117.11 339.396C1116.64 339.396 1116.25 339.241 1115.94 338.93C1115.68 338.619 1115.56 338.256 1115.56 337.841V302.154C1115.56 301.74 1115.71 301.377 1116.02 301.066C1116.33 300.755 1116.7 300.599 1117.11 300.599C1117.58 300.599 1117.94 300.755 1118.2 301.066C1118.51 301.377 1118.66 301.74 1118.66 302.154V309.774L1116.72 313.506C1116.72 311.64 1117.21 309.852 1118.2 308.141C1119.18 306.431 1120.48 304.928 1122.08 303.632C1123.69 302.284 1125.45 301.247 1127.37 300.522C1129.34 299.744 1131.28 299.355 1133.2 299.355ZM1191.82 281.862C1192.29 281.862 1192.65 282.017 1192.91 282.328C1193.22 282.639 1193.38 283.002 1193.38 283.417V337.841C1193.38 338.256 1193.22 338.619 1192.91 338.93C1192.6 339.241 1192.24 339.396 1191.82 339.396C1191.35 339.396 1190.97 339.241 1190.66 338.93C1190.4 338.619 1190.27 338.256 1190.27 337.841V326.801L1191.51 325.091C1191.51 326.853 1191.1 328.641 1190.27 330.455C1189.49 332.218 1188.35 333.85 1186.85 335.353C1185.4 336.805 1183.69 337.971 1181.72 338.852C1179.75 339.733 1177.62 340.174 1175.34 340.174C1171.92 340.174 1168.84 339.293 1166.1 337.53C1163.4 335.716 1161.25 333.28 1159.64 330.222C1158.09 327.112 1157.31 323.613 1157.31 319.726C1157.31 315.838 1158.09 312.366 1159.64 309.307C1161.25 306.197 1163.4 303.761 1166.1 301.999C1168.84 300.237 1171.92 299.355 1175.34 299.355C1177.47 299.355 1179.49 299.77 1181.41 300.599C1183.38 301.377 1185.11 302.491 1186.61 303.943C1188.12 305.394 1189.31 307.104 1190.19 309.074C1191.07 310.992 1191.51 313.091 1191.51 315.372L1190.27 313.428V283.417C1190.27 283.002 1190.4 282.639 1190.66 282.328C1190.97 282.017 1191.35 281.862 1191.82 281.862ZM1175.5 337.219C1178.45 337.219 1181.04 336.468 1183.27 334.965C1185.55 333.462 1187.34 331.388 1188.63 328.745C1189.93 326.101 1190.58 323.095 1190.58 319.726C1190.58 316.357 1189.93 313.376 1188.63 310.785C1187.34 308.141 1185.55 306.068 1183.27 304.565C1180.99 303.062 1178.4 302.31 1175.5 302.31C1172.65 302.31 1170.09 303.062 1167.81 304.565C1165.53 306.068 1163.71 308.141 1162.36 310.785C1161.07 313.376 1160.42 316.357 1160.42 319.726C1160.42 323.043 1161.07 326.024 1162.36 328.667C1163.71 331.311 1165.53 333.41 1167.81 334.965C1170.09 336.468 1172.65 337.219 1175.5 337.219Z"
     fill="#2F80ED"
     id="path2" />
  <g
     clip-path="url(#clip0_402_7)"
     id="g5">
    <path
       d="M599.85 254.451L497.384 316.763V192.138L599.85 254.451Z"
       fill="#F2994A"
       id="path3" />
    <path
       d="M407.922 361.272C469.434 361.272 519.298 311.454 519.298 250C519.298 188.546 469.434 138.728 407.922 138.728C346.411 138.728 296.547 188.546 296.547 250C296.547 311.454 346.411 361.272 407.922 361.272Z"
       fill="#F2994A"
       stroke="#333333"
       stroke-width="36"
       id="path4" />
    <path
       d="M408.863 314.604C447.576 314.604 476.835 284.2 476.835 246.695C476.835 209.19 447.576 178.786 408.863 178.786C370.149 178.786 336.642 209.19 336.642 246.695C336.642 284.2 370.149 314.604 408.863 314.604Z"
       fill="#333333"
       id="path5" />
  </g>
  <defs
     id="defs5">
    <clipPath
       id="clip0_402_7">
      <rect
         width="320.763"
         height="258.151"
         fill="white"
         transform="translate(278.726 120.924)"
         id="rect5" />
    </clipPath>
  </defs>
</svg>
