<?xml version="1.0" encoding="UTF-8" standalone="no"?>
<!-- Created with Inkscape (http://www.inkscape.org/) -->

<svg
   width="496mm"
   height="512mm"
   viewBox="0 0 496 512"
   version="1.1"
   id="svg1"
   xml:space="preserve"
   sodipodi:docname="liberapay-brands.svg"
   inkscape:export-filename="writefreely-brands.svg"
   inkscape:export-xdpi="96"
   inkscape:export-ydpi="96"
   xmlns:inkscape="http://www.inkscape.org/namespaces/inkscape"
   xmlns:sodipodi="http://sodipodi.sourceforge.net/DTD/sodipodi-0.dtd"
   xmlns="http://www.w3.org/2000/svg"
   xmlns:svg="http://www.w3.org/2000/svg"><sodipodi:namedview
     id="namedview1"
     pagecolor="#ffffff"
     bordercolor="#000000"
     borderopacity="0.25"
     inkscape:showpageshadow="2"
     inkscape:pageopacity="0.0"
     inkscape:pagecheckerboard="0"
     inkscape:deskcolor="#d1d1d1"
     inkscape:document-units="mm" /><defs
     id="defs1" /><g
     inkscape:label="Capa 1"
     inkscape:groupmode="layer"
     id="layer1"><g
       id="g71"
       transform="matrix(1.1519648,0,0,1.1519649,-22.168833,-20.707356)"
       style="display:inline"><g
         style="display:inline;fill:#000000"
         id="g4"
         transform="matrix(7.3858711,0,0,7.3858711,20.183351,17.078168)"><g
           id="g2"
           transform="scale(0.591415)"
           style="display:inline">
	<path
   d="M 91.057333,4.0676174 H 7.0573328 c -2.762,0 -5,2.239 -5,5 V 93.067617 c 0,2.761 2.238,5 5,5 H 91.057333 c 2.762,0 5,-2.239 5,-5 V 9.0676174 c 0,-2.761 -2.238,-5 -5,-5 z m -66.796,68.7749996 h -14.226 v -4.312 h 14.227 z m 0,-5.603 h -14.226 v -4.312 h 14.227 z m 0,-5.606 h -14.226 v -4.313 h 14.227 z m 0,-5.606 h -14.226 v -4.312 h 14.227 z m 0,-5.606 h -14.226 v -4.311 h 14.227 z m 15.955,22.421 h -14.228 v -4.312 h 14.229 z m 0,-5.603 h -14.228 v -4.312 h 14.229 z m 0,-5.606 h -14.228 v -4.313 h 14.229 z m 15.957,11.209 h -14.232 v -4.312 h 14.232 z m 0,-5.603 h -14.232 v -4.312 h 14.232 z m 0,-5.606 h -14.232 v -4.313 h 14.232 z m 0,-5.606 h -14.232 v -4.312 h 14.232 z m 0,-5.606 h -14.232 v -4.311 h 14.232 z m 0,-5.605 h -14.232 v -4.313 h 14.232 z m 0,-5.604 h -14.232 v -4.313 h 14.232 z m 15.95,33.63 h -14.227 v -4.312 h 14.229 v 4.312 z m 0,-5.603 h -14.227 v -4.312 h 14.229 v 4.312 z m 0,-5.606 h -14.227 v -4.313 h 14.229 v 4.313 z m 0,-5.606 h -14.227 v -4.312 h 14.229 v 4.312 z m 0,-5.606 h -14.227 v -4.311 h 14.229 v 4.311 z m 15.955,22.421 h -14.227 v -4.312 h 14.229 v 4.312 z m 0,-5.603 h -14.227 v -4.312 h 14.229 v 4.312 z m 0,-5.61 h -14.227 v -4.312 h 14.229 v 4.312 z m 0,-5.602 h -14.227 v -4.313 h 14.229 v 4.313 z m 0,-5.606 h -14.227 v -4.313 h 14.229 v 4.313 z m 0,-5.607 h -14.227 v -4.31 h 14.229 v 4.31 z m 0,-5.605 h -14.227 v -4.311 h 14.229 v 4.311 z m 0,-5.606 h -14.227 v -4.313 h 14.229 v 4.313 z"
   id="path1-7"
   style="display:inline" />
</g></g><path
         style="display:inline;fill:#ffffff;stroke-width:0.723396"
         d="m 79.302198,93.616264 1.485397,302.201816 314.162115,2.20585 -1.4854,-307.348813 z"
         id="path5" /></g><path
       style="display:none;fill:#000000;stroke-width:55.8662"
       d="M 47.454256,456.63883 C 13.295074,422.47997 11.173,410.76882 11.173,256.42 11.173,102.07118 13.295356,90.360542 47.454256,56.201167 81.613396,22.041786 93.324226,19.92 247.67301,19.92 402.02178,19.92 413.7326,22.042933 447.89174,56.201167 482.05093,90.360542 484.173,102.07118 484.173,256.42 c 0,154.34882 -2.1218,166.05997 -36.28126,200.21883 C 413.7326,490.79821 402.02178,492.92 247.67301,492.92 93.324226,492.92 81.613396,490.79707 47.454256,456.63883 Z M 208.1962,352.91041 c 19.15891,-19.15872 23.91837,-19.15872 39.81882,0 25.80787,31.09623 65.9963,26.90292 110.19211,-11.49836 44.86538,-38.98285 65.7797,-131.94699 37.38222,-166.16392 -24.37624,-29.37168 -59.22884,-28.51467 -59.22884,1.45806 0,15.04142 8.132,20.63254 22.17187,15.24536 17.29858,-6.638 22.17189,3.77095 22.17189,47.36561 0,60.08185 -42.15084,120.57311 -84.01654,120.57311 -20.36422,0 -22.50641,-14.71227 -15.06543,-103.4686 6.70953,-80.03107 4.2732,-103.46861 -10.7568,-103.46861 -12.52173,0 -21.9616,26.33303 -26.54715,74.05564 -6.56232,68.29582 -41.96669,132.88157 -72.84253,132.88157 -6.86968,0 -12.49032,-43.44369 -12.49032,-96.54171 0,-72.54117 -5.55869,-98.67538 -22.3601,-105.12289 -24.86613,-9.54193 -66.587252,18.69728 -65.857296,44.57616 0.257,9.1666 9.306288,5.02803 20.106042,-9.20059 32.436114,-42.7292 39.292354,-29.99567 29.358634,54.52491 -5.19668,44.21522 -5.46372,90.77637 -0.59335,103.46861 11.18015,29.13533 60.01225,29.8616 88.55645,1.31847 z"
       id="path3" /><path
       style="fill:#000000;stroke-width:6.73562"
       d="M 19.559996,256.42003 V 28.306996 H 247.67303 475.78599 V 256.42003 484.533 H 247.67303 19.559996 Z M 280.64248,412.12825 c 18.07557,-3.43531 37.2894,-11.0741 54.35503,-21.60976 17.38148,-10.73065 43.13256,-36.7715 53.10087,-53.69825 14.61448,-24.81645 23.53089,-53.90275 23.53089,-76.76082 v -10.76797 h -12.26711 c -13.76262,0 -14.39167,0.66684 -14.44056,15.30859 -0.0606,17.85667 -12.16608,49.78964 -26.04348,68.69451 -28.52468,38.85833 -79.27967,60.8529 -126.79873,54.94791 -32.81312,-4.07748 -58.33775,-16.54201 -81.68543,-39.88976 -22.16612,-22.16612 -36.48996,-50.35806 -39.10008,-76.95669 -0.56781,-5.78636 -1.42761,-13.12705 -1.91062,-16.31259 l -0.87819,-5.79197 H 96.11093 83.716716 v 10.76797 c 0,22.87592 8.940525,52.02459 23.530884,76.71751 9.70225,16.42016 34.12285,41.53055 50.84194,52.27818 37.09246,23.84424 77.98576,31.54325 122.55294,23.07314 z m 2.25211,-56.35303 c 41.64924,-14.67799 70.48935,-51.17846 74.63122,-94.45435 l 1.15125,-12.02942 H 345.05515 331.4333 l -0.0404,6.68302 c -0.22026,33.78196 -29.62386,68.97235 -64.31244,76.96935 -10.02698,2.3116 -28.78151,2.3116 -38.80849,0 -14.52665,-3.34895 -27.46982,-10.85284 -39.54146,-22.92448 -15.82245,-15.82245 -24.64733,-35.07642 -24.77099,-54.04487 l -0.0404,-6.68302 h -13.366 -13.36602 l 0.0337,6.68302 c 0.0202,3.67563 1.19833,12.19316 2.6252,18.92783 8.34396,39.38358 42.00879,73.81911 82.0169,83.89465 16.42339,4.13601 44.70289,2.73608 61.04075,-3.02173 z m -12.56334,-52.97054 c 16.866,-7.25555 30.72332,-25.87084 33.53403,-45.0481 l 1.2407,-8.46513 h -13.33519 -13.33517 l -1.02402,6.31055 c -2.311,14.24078 -15.61432,25.76785 -29.73857,25.76785 -14.12427,0 -27.42759,-11.52707 -29.73858,-25.76785 l -1.02402,-6.31055 h -13.33518 -13.33517 l 1.24069,8.46513 c 1.78043,12.14749 6.64416,22.14099 15.3975,31.63721 16.65773,18.07153 40.77185,23.16811 63.45298,13.41089 z m -14.30249,-49.86292 c 6.518,-3.97422 9.44018,-12.01641 9.45567,-26.0226 0.0135,-11.34669 6.7759,-25.50005 15.70114,-32.85696 3.6538,-3.01183 13.60177,-7.70367 22.90596,-10.80334 35.58179,-11.85415 55.07925,-32.04032 53.72061,-55.61836 l -0.53817,-9.33578 -16.93026,0.40279 c -18.67235,0.44455 -31.81853,3.67846 -54.35504,13.37203 -7.8414,3.37279 -18.26687,7.69444 -23.1677,9.60351 -5.57016,2.16988 -10.23438,5.48994 -12.44158,8.85619 l -3.53087,5.38507 -3.64027,-5.40177 c -2.23824,-3.32133 -7.05582,-6.73232 -12.50831,-8.8562 -4.8774,-1.89992 -15.28373,-6.21401 -23.12507,-9.5868 -22.53651,-9.69357 -35.6827,-12.92768 -54.35511,-13.37203 l -16.93026,-0.40279 -0.54626,9.57759 c -1.33587,23.41786 18.44557,43.22941 55.25223,55.33634 6.56406,2.15918 14.54989,5.6881 17.74614,7.84208 13.39971,9.03005 21.10998,25.36084 21.10998,44.71213 0,11.00196 7.92822,20.13412 17.8213,20.52755 1.47026,0.0607 5.23035,-1.45294 8.35574,-3.35865 z"
       id="path4" /></g></svg>
