<?xml version="1.0" encoding="UTF-8" standalone="no"?>
<svg
   viewBox="0 0 49.6 51.2"
   width="496"
   height="512"
   version="1.1"
   id="svg5"
   sodipodi:docname="ko-fi-brands.svg"
   inkscape:version="1.3 (0e150ed6c4, 2023-07-21)"
   xmlns:inkscape="http://www.inkscape.org/namespaces/inkscape"
   xmlns:sodipodi="http://sodipodi.sourceforge.net/DTD/sodipodi-0.dtd"
   xmlns="http://www.w3.org/2000/svg"
   xmlns:svg="http://www.w3.org/2000/svg">
  <defs
     id="defs5" />
  <sodipodi:namedview
     id="namedview5"
     pagecolor="#ffffff"
     bordercolor="#000000"
     borderopacity="0.25"
     inkscape:showpageshadow="2"
     inkscape:pageopacity="0.0"
     inkscape:pagecheckerboard="0"
     inkscape:deskcolor="#d1d1d1"
     inkscape:zoom="1.0988439"
     inkscape:cx="182.91951"
     inkscape:cy="209.76591"
     inkscape:window-width="1920"
     inkscape:window-height="991"
     inkscape:window-x="-9"
     inkscape:window-y="-9"
     inkscape:window-maximized="1"
     inkscape:current-layer="svg5" />
  <path
     d="m 29.26,23.96 c 0,0.91 -0.4,1.72 -1.03,2.28 l -4.68,4.75 -4.69,-4.75 c -0.63,-0.56 -1.03,-1.37 -1.03,-2.28 0,-1.69 1.38,-3.07 3.08,-3.07 0.9,0 1.72,0.39 2.28,1.02 0.14,0.15 0.26,0.31 0.36,0.48 0.09,-0.17 0.22,-0.33 0.36,-0.48 0.55,-0.63 1.37,-1.02 2.27,-1.02 1.7,0 3.08,1.38 3.08,3.07 z"
     id="path1" />
  <path
     d="m 38.48,22.86 c 0,2.03 -1.53,3.71 -3.51,3.93 v -7 c 0,-0.29 -0.03,-0.58 -0.09,-0.86 2.01,0.17 3.6,1.87 3.6,3.93 z"
     id="path2" />
  <path
     d="M 25,0.89800515 C 11.712465,0.89800515 0.89800515,11.712465 0.89800515,25 0.89800515,38.287535 11.712465,49.101995 25,49.101995 38.287535,49.101995 49.101995,38.287535 49.101995,25 49.101995,11.712465 38.287535,0.89800515 25,0.89800515 Z M 35.447691,30.574896 v 1.854806 c 0,2.032951 -1.645223,3.688653 -3.688653,3.688653 H 16.113699 c -2.04343,0 -3.688653,-1.655702 -3.688653,-3.688653 V 17.696048 c 0,-1.529953 1.236537,-2.76649 2.76649,-2.76649 H 34.73511 c 4.097339,0 7.69168,3.049426 8.047971,7.125807 0.398206,4.474588 -2.997031,8.268032 -7.33539,8.519531 z"
     id="path3"
     style="stroke-width:1.04791" />
  <g
     id="g4">
    <path
       fill="#ffffff"
       d="m 26.18,20.89 c -0.9,0 -1.72,0.39 -2.27,1.02 -0.14,0.15 -0.27,0.31 -0.36,0.48 -0.1,-0.17 -0.22,-0.33 -0.36,-0.48 -0.56,-0.63 -1.38,-1.02 -2.28,-1.02 -1.7,0 -3.08,1.38 -3.08,3.07 0,0.91 0.4,1.72 1.03,2.28 l 4.69,4.75 4.68,-4.75 c 0.63,-0.56 1.03,-1.37 1.03,-2.28 0,-1.69 -1.38,-3.07 -3.08,-3.07 z"
       id="path4" />
  </g>
  <path
     d="m 29.26,23.96 c 0,0.91 -0.4,1.72 -1.03,2.28 l -4.68,4.75 -4.69,-4.75 c -0.63,-0.56 -1.03,-1.37 -1.03,-2.28 0,-1.69 1.38,-3.07 3.08,-3.07 0.9,0 1.72,0.39 2.28,1.02 0.14,0.15 0.26,0.31 0.36,0.48 0.09,-0.17 0.22,-0.33 0.36,-0.48 0.55,-0.63 1.37,-1.02 2.27,-1.02 1.7,0 3.08,1.38 3.08,3.07 z"
     id="path5" />
</svg>
