<?xml version="1.0" encoding="UTF-8" standalone="no"?>
<svg
   width="496"
   height="512"
   fill="currentColor"
   class="bi bi-mastodon"
   viewBox="0 0 496 512"
   version="1.1"
   id="svg1"
   sodipodi:docname="mastodon.svg"
   inkscape:version="1.3 (0e150ed6c4, 2023-07-21)"
   xmlns:inkscape="http://www.inkscape.org/namespaces/inkscape"
   xmlns:sodipodi="http://sodipodi.sourceforge.net/DTD/sodipodi-0.dtd"
   xmlns="http://www.w3.org/2000/svg"
   xmlns:svg="http://www.w3.org/2000/svg">
  <defs
     id="defs1" />
  <sodipodi:namedview
     id="namedview1"
     pagecolor="#ffffff"
     bordercolor="#000000"
     borderopacity="0.25"
     inkscape:showpageshadow="2"
     inkscape:pageopacity="0.0"
     inkscape:pagecheckerboard="0"
     inkscape:deskcolor="#d1d1d1"
     inkscape:zoom="1.0730898"
     inkscape:cx="287.02165"
     inkscape:cy="280.96437"
     inkscape:window-width="1920"
     inkscape:window-height="991"
     inkscape:window-x="-9"
     inkscape:window-y="-9"
     inkscape:window-maximized="1"
     inkscape:current-layer="svg1" />
  <path
     d="m 346.79238,385.93288 c 62.43916,-7.43322 116.7637,-45.68342 123.57752,-80.61961 10.77816,-55.06787 9.91098,-134.38667 9.91098,-134.38667 0,-107.472169 -70.80157,-139.001483 -70.80157,-139.001483 C 373.7998,15.602989 312.50657,8.7582115 248.82855,8.2316969 h -1.54859 C 183.57096,8.7582115 122.3087,15.602989 86.629191,31.925117 c 0,0 -70.770578,31.498345 -70.770578,139.001483 l -0.06204,20.50333 c -0.123828,19.82196 -0.216757,41.81193 0.34068,64.76206 2.570657,105.1183 19.388354,208.74997 117.073447,234.45657 45.03302,11.86223 83.71679,14.33997 114.87444,12.6365 56.4616,-3.09716 88.17674,-20.03876 88.17674,-20.03876 l -1.85833,-40.78985 c 0,0 -40.35624,12.69843 -85.69899,11.14983 -44.90912,-1.54859 -92.29598,-4.8316 -99.57434,-59.71365 a 111.9321,111.9321 0 0 1 -1.02209,-15.36201 c 0,0 44.10386,10.71624 99.97701,13.25592 34.16189,1.5486 66.18674,-1.98217 98.73811,-5.85366 z M 396.7499,309.43252 H 344.93407 V 183.06753 c 0,-26.60477 -11.27374,-40.10847 -33.79024,-40.10847 -24.90134,0 -37.38298,16.01243 -37.38298,47.72754 v 69.16005 h -51.53709 v -69.19102 c 0,-31.71512 -12.48163,-47.72754 -37.38297,-47.72754 -22.51649,0 -33.79024,13.5037 -33.79024,40.13944 V 309.40155 H 99.234715 V 179.25802 c 0,-26.60478 6.813795,-47.72757 20.441395,-63.36831 14.12314,-15.64077 32.58234,-23.662475 55.53243,-23.662475 26.51189,0 46.58162,10.158745 59.86851,30.445285 l 12.91526,21.52541 12.91524,-21.52541 c 13.28692,-20.28654 33.35665,-30.445285 59.89948,-30.445285 22.91915,0 41.37831,8.021705 55.47049,23.662475 13.68956,15.64074 20.47238,36.76353 20.47238,63.36831 z"
     id="path1"
     style="stroke-width:30.9717" />
</svg>
