<?xml version="1.0" encoding="UTF-8" standalone="no"?>
<!-- Created with Inkscape (http://www.inkscape.org/) -->

<svg
   width="496mm"
   height="512mm"
   viewBox="0 0 496 512"
   version="1.1"
   id="svg1"
   xml:space="preserve"
   inkscape:version="1.3.2 (091e20e, 2023-11-25, custom)"
   sodipodi:docname="mirlo-brands.svg"
   inkscape:export-filename="mirlo-brands.png"
   inkscape:export-xdpi="96"
   inkscape:export-ydpi="96"
   xmlns:inkscape="http://www.inkscape.org/namespaces/inkscape"
   xmlns:sodipodi="http://sodipodi.sourceforge.net/DTD/sodipodi-0.dtd"
   xmlns="http://www.w3.org/2000/svg"
   xmlns:svg="http://www.w3.org/2000/svg"><sodipodi:namedview
     id="namedview1"
     pagecolor="#ffffff"
     bordercolor="#000000"
     borderopacity="0.25"
     inkscape:showpageshadow="2"
     inkscape:pageopacity="0.0"
     inkscape:pagecheckerboard="0"
     inkscape:deskcolor="#d1d1d1"
     inkscape:document-units="mm"
     inkscape:zoom="0.34609638"
     inkscape:cx="1255.4306"
     inkscape:cy="1050.2855"
     inkscape:window-width="1920"
     inkscape:window-height="991"
     inkscape:window-x="-9"
     inkscape:window-y="-9"
     inkscape:window-maximized="1"
     inkscape:current-layer="g5" /><defs
     id="defs1"><clipPath
       clipPathUnits="userSpaceOnUse"
       id="clipPath3"><path
         style="fill:#000000;stroke-width:0.264583"
         d="M 56.189189,166.27413 H 150.60232 V 74.918919 H 55.806949 Z"
         id="path4" /></clipPath></defs><g
     inkscape:label="Capa 1"
     inkscape:groupmode="layer"
     id="layer1"><g
       id="g5"
       transform="matrix(1.1519648,0,0,1.1519649,-22.168833,-20.707356)"><path
         style="fill:#000000;stroke-width:9.29203"
         d="M 198.0113,443.72566 C 87.672074,422.99579 14.901648,321.25485 31.526289,210.96146 42.761009,136.4261 96.649098,72.417574 168.52899,48.228929 c 95.49039,-32.133966 200.78079,10.439228 246.96337,99.857351 46.19941,89.45047 21.4841,196.96464 -59.37076,258.26981 -43.57637,33.04014 -104.50477,47.44065 -158.1103,37.36957 z m 40.60459,-70.98757 c 7.42164,-3.09545 16.65188,-11.49953 20.31415,-18.49596 3.70361,-7.07515 5.52031,-22.66401 3.86306,-33.14764 -4.29022,-27.13988 -23.85933,-48.09229 -54.12114,-57.94696 -10.71222,-3.48842 -18.07291,-4.50654 -38.78167,-5.36429 l -25.55998,-1.05874 14.68662,-11.4592 c 20.9868,-16.37498 32.16333,-29.44496 41.38316,-48.39382 4.30296,-8.84359 10.56041,-19.10849 13.90534,-22.811 22.47473,-24.8768 60.5242,-28.95211 89.74837,-9.61243 8.32863,5.51168 16.7525,5.70978 21.51533,0.50642 5.209,-5.69118 6.15476,-10.65228 3.14136,-16.47941 -5.28625,-10.22253 -41.12263,-24.01097 -62.40491,-24.01097 -22.93719,0 -48.97922,11.20757 -65.7332,28.28911 -10.35347,10.55594 -12.1012,13.41295 -24.7155,40.40137 -7.33792,15.69964 -10.43626,19.2897 -46.73092,54.14735 -16.65773,15.99819 -18.87825,19.07626 -17.31504,24.0017 1.90244,5.99409 6.45823,6.97924 19.07085,4.12406 6.40231,-1.44937 22.41025,-3.08495 35.57324,-3.63466 20.87343,-0.8716 25.7603,-0.53708 38.2289,2.6156 7.86292,1.98831 17.72028,5.62187 21.90541,8.0745 7.28216,4.26766 21.68267,17.60107 20.39757,18.88615 -0.33822,0.33824 -3.23705,-0.72106 -6.44133,-2.3545 -8.46698,-4.31587 -26.04369,-3.9455 -34.85113,0.73407 -23.69301,12.5892 -29.96289,39.66227 -14.01731,60.52605 10.44358,13.66485 30.98269,19.11843 46.93877,12.46329 z"
         id="path3" /></g></g></svg>
