<?xml version="1.0" encoding="UTF-8" standalone="no"?>
<!-- Created with Inkscape (http://www.inkscape.org/) -->

<svg
   width="496mm"
   height="512mm"
   viewBox="0 0 496 512"
   version="1.1"
   id="svg1"
   xml:space="preserve"
   sodipodi:docname="liberapay-brands.svg"
   inkscape:export-filename="peertube-brands.svg"
   inkscape:export-xdpi="96"
   inkscape:export-ydpi="96"
   xmlns:inkscape="http://www.inkscape.org/namespaces/inkscape"
   xmlns:sodipodi="http://sodipodi.sourceforge.net/DTD/sodipodi-0.dtd"
   xmlns="http://www.w3.org/2000/svg"
   xmlns:svg="http://www.w3.org/2000/svg"><sodipodi:namedview
     id="namedview1"
     pagecolor="#ffffff"
     bordercolor="#000000"
     borderopacity="0.25"
     inkscape:showpageshadow="2"
     inkscape:pageopacity="0.0"
     inkscape:pagecheckerboard="0"
     inkscape:deskcolor="#d1d1d1"
     inkscape:document-units="mm" /><defs
     id="defs1" /><g
     inkscape:label="Capa 1"
     inkscape:groupmode="layer"
     id="layer1"><g
       id="g71"
       transform="matrix(1.1519648,0,0,1.1519649,-22.168833,-20.707356)"
       style="display:inline"><g
         style="display:inline;fill:#000000"
         id="g4"
         transform="matrix(7.3858711,0,0,7.3858711,20.183351,17.078168)"><g
           id="g2"
           transform="scale(0.591415)"
           style="display:inline">
	<rect
   style="fill:#000000;stroke-width:0.0984259"
   id="rect8"
   width="22.131067"
   height="63.512234"
   x="8.1660328"
   y="18.669851" /><rect
   style="fill:#000000;stroke-width:0.090682"
   id="rect9"
   width="16.180082"
   height="91.695999"
   x="75.010185"
   y="5.8075962" /><path
   d="M 91.057333,4.0676174 H 7.0573328 c -2.762,0 -5,2.239 -5,5 V 93.067617 c 0,2.761 2.238,5 5,5 H 91.057333 c 2.762,0 5,-2.239 5,-5 V 9.0676174 c 0,-2.761 -2.238,-5 -5,-5 z m -66.796,68.7749996 h -14.226 v -4.312 h 14.227 z m 0,-5.603 h -14.226 v -4.312 h 14.227 z m 0,-5.606 h -14.226 v -4.313 h 14.227 z m 0,-5.606 h -14.226 v -4.312 h 14.227 z m 0,-5.606 h -14.226 v -4.311 h 14.227 z m 15.955,22.421 h -14.228 v -4.312 h 14.229 z m 0,-5.603 h -14.228 v -4.312 h 14.229 z m 0,-5.606 h -14.228 v -4.313 h 14.229 z m 15.957,11.209 h -14.232 v -4.312 h 14.232 z m 0,-5.603 h -14.232 v -4.312 h 14.232 z m 0,-5.606 h -14.232 v -4.313 h 14.232 z m 0,-5.606 h -14.232 v -4.312 h 14.232 z m 0,-5.606 h -14.232 v -4.311 h 14.232 z m 0,-5.605 h -14.232 v -4.313 h 14.232 z m 0,-5.604 h -14.232 v -4.313 h 14.232 z m 15.95,33.63 h -14.227 v -4.312 h 14.229 v 4.312 z m 0,-5.603 h -14.227 v -4.312 h 14.229 v 4.312 z m 0,-5.606 h -14.227 v -4.313 h 14.229 v 4.313 z m 0,-5.606 h -14.227 v -4.312 h 14.229 v 4.312 z m 0,-5.606 h -14.227 v -4.311 h 14.229 v 4.311 z m 15.955,22.421 h -14.227 v -4.312 h 14.229 v 4.312 z m 0,-5.603 h -14.227 v -4.312 h 14.229 v 4.312 z m 0,-5.61 h -14.227 v -4.312 h 14.229 v 4.312 z m 0,-5.602 h -14.227 v -4.313 h 14.229 v 4.313 z m 0,-5.606 h -14.227 v -4.313 h 14.229 v 4.313 z m 0,-5.607 h -14.227 v -4.31 h 14.229 v 4.31 z m 0,-5.605 h -14.227 v -4.311 h 14.229 v 4.311 z m 0,-5.606 h -14.227 v -4.313 h 14.229 v 4.313 z"
   id="path1-7"
   style="display:inline" />
</g></g></g><g
       id="g7"
       transform="matrix(1.0074949,0,0,1.0074949,-470.80603,0.24029671)"><g
         id="g8"><rect
           style="fill:#ffffff;stroke-width:0.405845"
           id="rect10"
           width="244.61197"
           height="323.7511"
           x="603.9986"
           y="91.456276" /><path
           style="display:inline;fill:#000000;stroke-width:1.36926"
           d="m 605.05623,415.65612 c 0.42125,-0.35206 27.84565,-18.64655 60.94305,-40.65435 33.09742,-22.0078 60.17751,-40.0957 60.17799,-40.19533 5.2e-4,-0.0997 -27.38657,-18.42863 -60.86013,-40.73113 -33.47357,-22.30252 -60.73532,-40.66464 -60.58165,-40.8047 0.1537,-0.14007 27.58659,-18.45162 60.96202,-40.69232 l 60.6826,-40.43765 0.18114,81.15166 0.18113,81.15167 60.80701,-40.53778 60.807,-40.53782 L 726.8668,172.30836 C 660.0475,127.72535 605.22231,91.108528 605.03301,90.937645 604.8416,90.764846 658.82614,90.626961 726.6699,90.626961 H 848.65098 V 253.47367 416.32038 l -122.18032,-0.0123 c -116.85795,-0.0109 -122.14696,-0.04 -121.41443,-0.65221 z"
           id="path7" /></g></g><rect
       style="fill:#000000;stroke-width:0.248446"
       id="rect11"
       width="54.392033"
       height="197.65146"
       x="383.14722"
       y="257.02036" /><rect
       style="fill:#000000;stroke-width:0.228088"
       id="rect12"
       width="38.417473"
       height="180.35216"
       x="383.3071"
       y="73.801804" /><rect
       style="fill:#000000;stroke-width:0.224565"
       id="rect13"
       width="237.0694"
       height="28.879333"
       x="133.25749"
       y="63.258686" /><rect
       style="fill:#000000;stroke-width:0.265365"
       id="rect14"
       width="255.94464"
       height="43.250519"
       x="135.46848"
       y="419.32864" /></g></svg>
