<?xml version="1.0" encoding="UTF-8" standalone="no"?>
<svg
   viewBox="0 0 165.33333 170.66667"
   width="496"
   height="512"
   version="1.1"
   id="svg1"
   sodipodi:docname="tidal-brands.svg"
   inkscape:version="1.3 (0e150ed6c4, 2023-07-21)"
   xmlns:inkscape="http://www.inkscape.org/namespaces/inkscape"
   xmlns:sodipodi="http://sodipodi.sourceforge.net/DTD/sodipodi-0.dtd"
   xmlns="http://www.w3.org/2000/svg"
   xmlns:svg="http://www.w3.org/2000/svg">
  <defs
     id="defs1" />
  <sodipodi:namedview
     id="namedview1"
     pagecolor="#ffffff"
     bordercolor="#000000"
     borderopacity="0.25"
     inkscape:showpageshadow="2"
     inkscape:pageopacity="0.0"
     inkscape:pagecheckerboard="0"
     inkscape:deskcolor="#d1d1d1"
     inkscape:zoom="0.67447917"
     inkscape:cx="269.09652"
     inkscape:cy="229.06564"
     inkscape:window-width="1920"
     inkscape:window-height="991"
     inkscape:window-x="-9"
     inkscape:window-y="-9"
     inkscape:window-maximized="1"
     inkscape:current-layer="svg1" />
  <path
     d="m 38.858113,6.4779499 c -19.354617,0 -35.0468392,15.6922221 -35.0468392,35.0468391 v 87.617091 c 0,19.35462 15.6922222,35.04683 35.0468392,35.04683 h 87.617097 c 19.35462,0 35.04685,-15.69221 35.04685,-35.04683 V 41.524789 c 0,-19.354617 -15.69223,-35.0468391 -35.04685,-35.0468391 z m 8.76171,48.1894041 17.52342,17.52342 17.523419,-17.52342 17.523418,17.52342 17.52342,-17.52342 17.52342,17.52342 L 117.7135,89.714193 100.19008,72.190774 82.666662,89.714193 100.19008,107.23761 82.666662,124.76103 65.143243,107.23761 82.666662,89.714193 65.143243,72.190774 47.619823,89.714193 30.096404,72.190774 Z"
     id="path1"
     style="stroke-width:4.38085" />
</svg>
