<?xml version="1.0" encoding="UTF-8" standalone="no"?>
<!-- Uploaded to: SVG Repo, www.svgrepo.com, Generator: SVG Repo Mixer Tools -->

<svg
   fill="#000000"
   version="1.1"
   id="Capa_1"
   width="496"
   height="512"
   viewBox="0 0 58.28 60.16"
   xml:space="preserve"
   sodipodi:docname="deezer-logo-svgrepo-com.svg"
   inkscape:version="1.3.2 (091e20e, 2023-11-25, custom)"
   xmlns:inkscape="http://www.inkscape.org/namespaces/inkscape"
   xmlns:sodipodi="http://sodipodi.sourceforge.net/DTD/sodipodi-0.dtd"
   xmlns="http://www.w3.org/2000/svg"
   xmlns:svg="http://www.w3.org/2000/svg"><defs
   id="defs1" /><sodipodi:namedview
   id="namedview1"
   pagecolor="#ffffff"
   bordercolor="#000000"
   borderopacity="0.25"
   inkscape:showpageshadow="2"
   inkscape:pageopacity="0.0"
   inkscape:pagecheckerboard="0"
   inkscape:deskcolor="#d1d1d1"
   inkscape:zoom="0.97125"
   inkscape:cx="399.4852"
   inkscape:cy="317.63192"
   inkscape:window-width="1920"
   inkscape:window-height="991"
   inkscape:window-x="-9"
   inkscape:window-y="-9"
   inkscape:window-maximized="1"
   inkscape:current-layer="Capa_1" />
<g
   id="g1"
   transform="scale(0.591415)">
	<path
   d="M 91.057333,4.0676174 H 7.0573328 c -2.762,0 -5,2.239 -5,5 V 93.067617 c 0,2.761 2.238,5 5,5 H 91.057333 c 2.762,0 5,-2.239 5,-5 V 9.0676174 c 0,-2.761 -2.238,-5 -5,-5 z m -66.796,68.7749996 h -14.226 v -4.312 h 14.227 z m 0,-5.603 h -14.226 v -4.312 h 14.227 z m 0,-5.606 h -14.226 v -4.313 h 14.227 z m 0,-5.606 h -14.226 v -4.312 h 14.227 z m 0,-5.606 h -14.226 v -4.311 h 14.227 z m 15.955,22.421 h -14.228 v -4.312 h 14.229 z m 0,-5.603 h -14.228 v -4.312 h 14.229 z m 0,-5.606 h -14.228 v -4.313 h 14.229 z m 15.957,11.209 h -14.232 v -4.312 h 14.232 z m 0,-5.603 h -14.232 v -4.312 h 14.232 z m 0,-5.606 h -14.232 v -4.313 h 14.232 z m 0,-5.606 h -14.232 v -4.312 h 14.232 z m 0,-5.606 h -14.232 v -4.311 h 14.232 z m 0,-5.605 h -14.232 v -4.313 h 14.232 z m 0,-5.604 h -14.232 v -4.313 h 14.232 z m 15.95,33.63 h -14.227 v -4.312 h 14.229 v 4.312 z m 0,-5.603 h -14.227 v -4.312 h 14.229 v 4.312 z m 0,-5.606 h -14.227 v -4.313 h 14.229 v 4.313 z m 0,-5.606 h -14.227 v -4.312 h 14.229 v 4.312 z m 0,-5.606 h -14.227 v -4.311 h 14.229 v 4.311 z m 15.955,22.421 h -14.227 v -4.312 h 14.229 v 4.312 z m 0,-5.603 h -14.227 v -4.312 h 14.229 v 4.312 z m 0,-5.61 h -14.227 v -4.312 h 14.229 v 4.312 z m 0,-5.602 h -14.227 v -4.313 h 14.229 v 4.313 z m 0,-5.606 h -14.227 v -4.313 h 14.229 v 4.313 z m 0,-5.607 h -14.227 v -4.31 h 14.229 v 4.31 z m 0,-5.605 h -14.227 v -4.311 h 14.229 v 4.311 z m 0,-5.606 h -14.227 v -4.313 h 14.229 v 4.313 z"
   id="path1" />
</g>
</svg>
