<?xml version="1.0" encoding="UTF-8" standalone="no"?>
<!-- Created with Inkscape (http://www.inkscape.org/) -->

<svg
   width="496mm"
   height="512mm"
   viewBox="0 0 496 512"
   version="1.1"
   id="svg1"
   xml:space="preserve"
   inkscape:version="1.3.2 (091e20e, 2023-11-25, custom)"
   sodipodi:docname="Deezer Logo.svg"
   xmlns:inkscape="http://www.inkscape.org/namespaces/inkscape"
   xmlns:sodipodi="http://sodipodi.sourceforge.net/DTD/sodipodi-0.dtd"
   xmlns="http://www.w3.org/2000/svg"
   xmlns:svg="http://www.w3.org/2000/svg"><sodipodi:namedview
     id="namedview1"
     pagecolor="#ffffff"
     bordercolor="#000000"
     borderopacity="0.25"
     inkscape:showpageshadow="2"
     inkscape:pageopacity="0.0"
     inkscape:pagecheckerboard="0"
     inkscape:deskcolor="#d1d1d1"
     inkscape:document-units="mm"
     inkscape:zoom="0.2447271"
     inkscape:cx="1035.8477"
     inkscape:cy="1109.399"
     inkscape:window-width="1920"
     inkscape:window-height="991"
     inkscape:window-x="-9"
     inkscape:window-y="-9"
     inkscape:window-maximized="1"
     inkscape:current-layer="layer1" /><defs
     id="defs1"><clipPath
       clipPathUnits="userSpaceOnUse"
       id="clipPath3"><path
         style="fill:#000000;stroke-width:0.264583"
         d="M 56.189189,166.27413 H 150.60232 V 74.918919 H 55.806949 Z"
         id="path4" /></clipPath></defs><g
     inkscape:label="Capa 1"
     inkscape:groupmode="layer"
     id="layer1"><g
       id="g5"
       transform="matrix(1.1519648,0,0,1.1519649,-22.168833,-20.707356)"><g
         style="fill:#000000"
         id="g4"
         transform="matrix(7.3858711,0,0,7.3858711,20.183351,17.078168)"><g
           id="g1"
           transform="scale(0.591415)">
	<path
   d="M 91.057333,4.0676174 H 7.0573328 c -2.762,0 -5,2.239 -5,5 V 93.067617 c 0,2.761 2.238,5 5,5 H 91.057333 c 2.762,0 5,-2.239 5,-5 V 9.0676174 c 0,-2.761 -2.238,-5 -5,-5 z m -66.796,68.7749996 h -14.226 v -4.312 h 14.227 z m 0,-5.603 h -14.226 v -4.312 h 14.227 z m 0,-5.606 h -14.226 v -4.313 h 14.227 z m 0,-5.606 h -14.226 v -4.312 h 14.227 z m 0,-5.606 h -14.226 v -4.311 h 14.227 z m 15.955,22.421 h -14.228 v -4.312 h 14.229 z m 0,-5.603 h -14.228 v -4.312 h 14.229 z m 0,-5.606 h -14.228 v -4.313 h 14.229 z m 15.957,11.209 h -14.232 v -4.312 h 14.232 z m 0,-5.603 h -14.232 v -4.312 h 14.232 z m 0,-5.606 h -14.232 v -4.313 h 14.232 z m 0,-5.606 h -14.232 v -4.312 h 14.232 z m 0,-5.606 h -14.232 v -4.311 h 14.232 z m 0,-5.605 h -14.232 v -4.313 h 14.232 z m 0,-5.604 h -14.232 v -4.313 h 14.232 z m 15.95,33.63 h -14.227 v -4.312 h 14.229 v 4.312 z m 0,-5.603 h -14.227 v -4.312 h 14.229 v 4.312 z m 0,-5.606 h -14.227 v -4.313 h 14.229 v 4.313 z m 0,-5.606 h -14.227 v -4.312 h 14.229 v 4.312 z m 0,-5.606 h -14.227 v -4.311 h 14.229 v 4.311 z m 15.955,22.421 h -14.227 v -4.312 h 14.229 v 4.312 z m 0,-5.603 h -14.227 v -4.312 h 14.229 v 4.312 z m 0,-5.61 h -14.227 v -4.312 h 14.229 v 4.312 z m 0,-5.602 h -14.227 v -4.313 h 14.229 v 4.313 z m 0,-5.606 h -14.227 v -4.313 h 14.229 v 4.313 z m 0,-5.607 h -14.227 v -4.31 h 14.229 v 4.31 z m 0,-5.605 h -14.227 v -4.311 h 14.229 v 4.311 z m 0,-5.606 h -14.227 v -4.313 h 14.229 v 4.313 z"
   id="path1" />
</g></g><path
         style="fill:#ffffff;stroke-width:0.867839"
         d="M 46.082018,57.963747 47.855091,422.33102 422.86085,424.99063 421.08777,54.417587 Z"
         id="path5" /><path
         style="fill:#000000"
         d="m -32.690034,244.38126 c 0,-0.12124 0.936242,-1.28839 2.080537,-2.59367 7.361803,-8.39747 12.836772,-16.974 15.103212,-23.65914 0.449204,-1.32499 0.86642,-3.63697 0.969816,-5.3742 0.15611,-2.62292 0.06891,-3.31047 -0.624186,-4.92162 -3.686103,-8.56857 -18.708245,-8.07855 -42.313032,1.38026 -2.90756,1.16511 -5.383624,2.11837 -5.502366,2.11837 -0.118741,0 0.650312,-0.67719 1.709007,-1.50488 1.058695,-0.82769 4.2414,-3.36322 7.072678,-5.63451 2.831277,-2.27129 5.64853,-4.52613 6.260563,-5.01075 0.612032,-0.48461 3.845306,-3.22138 7.185054,-6.08169 36.7116359,-31.4415 57.575188,-59.78753 53.281151,-72.38983 -0.753465,-2.2113 -3.2602037,-4.65612 -5.8338617,-5.68975 -1.801692,-0.7236 -2.6182122,-0.80539 -8.0857579,-0.80992 -4.9374531,-0.004 -6.8439136,0.14922 -10.1329574,0.81489 -5.453142,1.10366 -11.631698,2.89409 -18.253849,5.28965 -3.020069,1.0925 -5.569118,1.90829 -5.664555,1.81285 -0.09544,-0.0954 0.685177,-1.11984 1.734696,-2.27645 13.969488,-15.39491 23.8927194,-30.331412 27.162937,-40.885797 1.5113371,-4.877728 1.6540186,-9.515491 0.3797112,-12.342253 -1.5042786,-3.336901 -4.2263162,-5.445432 -8.8356272,-6.84421 -3.107097,-0.942904 -12.050318,-0.847491 -17.872044,0.190673 -16.792114,2.994467 -39.702258,11.595168 -64.752108,24.308598 -3.344924,1.697635 -6.558714,3.296216 -7.141744,3.5524 l -1.06006,0.46579 0.72074,-0.819724 c 0.39641,-0.450849 1.91983,-2.187302 3.3854,-3.858786 1.46558,-1.671484 2.878382,-3.265067 3.139576,-3.541296 1.741196,-1.841425 7.783342,-9.770592 10.241965,-13.44063 5.651963,-8.436806 8.387379,-14.774625 8.690619,-20.135724 0.219975,-3.889032 -0.339021,-5.813736 -2.327853,-8.015136 l -1.243168,-1.376038 H 117.70073 318.61699 V 140.85521 244.60169 H 142.96348 c -96.609435,0 -175.653514,-0.0992 -175.653514,-0.22043 z M 125.87054,200.22523 c 1.95948,-0.5442 2.42534,-1.44975 2.42534,-4.71441 v -2.78237 h -1.41594 -1.41594 l -0.10448,2.77253 c -0.0821,2.17954 -0.21926,2.77254 -0.64111,2.77254 -0.41339,0 -0.57769,-0.61612 -0.71549,-2.6831 l -0.17887,-2.6831 h -1.43099 -1.43098 l 0.0163,2.7372 c 0.0179,3.00144 0.34164,3.67913 2.13004,4.45854 1.31952,0.57508 1.15718,0.5679 2.76212,0.12217 z m 9.49083,-0.55544 c 0.53608,-0.34525 0.80493,-0.87136 0.80493,-1.57515 0,-1.23274 -0.93062,-1.96941 -2.95536,-2.33944 -1.48358,-0.27113 -1.97618,-0.69596 -1.16702,-1.00646 0.28831,-0.11064 0.75885,0.0335 1.04563,0.32026 0.48993,0.48993 3.07675,0.75815 3.07675,0.31903 0,-1.16433 -2.12176,-2.65958 -3.77394,-2.65958 -1.40461,0 -3.28158,1.01223 -3.51219,1.89408 -0.29009,1.1093 0.63289,2.29851 1.99725,2.57337 1.95239,0.39332 2.42691,0.57376 2.42691,0.92285 0,0.44757 -1.33066,0.42764 -1.60986,-0.0241 -0.1216,-0.19676 -0.87518,-0.35774 -1.67461,-0.35774 -1.42319,0 -1.44264,0.0168 -0.93256,0.80493 1.24867,1.92937 4.20458,2.46078 6.27407,1.12796 z m 10.05052,0.37305 c 1.14429,-0.45785 2.2023,-1.65967 2.2023,-2.50165 0,-0.48172 -2.65727,-0.0895 -3.05213,0.45051 -0.9253,1.26543 -2.04938,-0.81025 -1.38143,-2.55089 0.27513,-0.71699 1.17133,-0.73517 1.44221,-0.0293 0.27117,0.70663 2.99135,0.75414 2.99135,0.0522 0,-0.86986 -1.68286,-2.32531 -2.96721,-2.56626 -4.48149,-0.84073 -6.43777,5.37061 -2.26365,7.18729 1.41905,0.6176 1.37871,0.61816 3.02856,-0.042 z m -79.363903,-0.87496 c 0,-1.01163 -0.08124,-1.07324 -1.415313,-1.07324 h -1.415313 l -0.105109,-2.59366 -0.10511,-2.59366 -1.341549,-0.11103 -1.341549,-0.11103 v 3.77793 3.77793 h 2.861972 2.861971 z m 3.500543,-2.59366 -0.101951,-3.6669 -1.34155,-0.11103 -1.341549,-0.11103 v 3.77793 3.77793 h 1.443501 1.443501 z m 7.312489,0.0672 c 1.014884,-3.90586 0.968318,-4.0802 -1.028385,-3.85023 -0.904356,0.10415 -1.04563,0.30699 -1.371769,1.96957 -0.484795,2.47138 -0.763004,2.63378 -1.064756,0.62155 -0.37889,-2.52661 -0.477631,-2.65388 -2.058982,-2.65388 -1.630748,0 -1.608491,-0.47201 -0.223528,4.74014 l 0.736714,2.77253 h 2.037689 2.037688 z m 7.432037,2.70532 c 0,-0.82149 -0.131173,-0.89437 -1.609859,-0.89437 -1.192488,0 -1.609859,-0.13912 -1.609859,-0.53662 0,-0.38756 0.397496,-0.53662 1.430986,-0.53662 1.287887,0 1.430986,-0.0894 1.430986,-0.89436 0,-0.80493 -0.143099,-0.89437 -1.430986,-0.89437 -0.787042,0 -1.430986,-0.16099 -1.430986,-0.35775 0,-0.19676 0.724437,-0.35774 1.609859,-0.35774 1.550235,0 1.609859,-0.0397 1.609859,-1.07324 v -1.07324 h -3.040844 -3.040845 v 3.75634 3.75633 h 3.040845 c 3.00507,0 3.040844,-0.0105 3.040844,-0.89436 z m 7.51268,-1.78874 v -2.68309 h 1.097 c 0.98567,0 1.08551,-0.0998 0.9838,-0.98381 l -0.1132,-0.9838 -3.48803,-0.10239 -3.488024,-0.10239 v 1.06243 c 0,0.89308 0.156821,1.08048 0.983802,1.17563 0.961066,0.11058 0.986232,0.17314 1.088912,2.70686 l 0.10511,2.59366 h 1.41531 1.41532 z m 5.366193,1.43099 c 0,-1.09709 0.11073,-1.25211 0.89437,-1.25211 0.78363,0 0.89437,0.15502 0.89437,1.25211 0,1.22411 0.0323,1.25211 1.443501,1.25211 h 1.4435 l -0.10195,-3.6669 -0.10195,-3.6669 -1.31875,-0.10967 c -1.291621,-0.10742 -1.321061,-0.0817 -1.430991,1.25211 -0.0905,1.0982 -0.26804,1.38391 -0.91717,1.4761 -0.72326,0.10272 -0.80493,-0.0356 -0.80493,-1.36314 v -1.47746 l -1.34155,0.11103 -1.34155,0.11103 -0.10195,3.6669 -0.10195,3.6669 h 1.4435 c 1.41122,0 1.4435,-0.028 1.4435,-1.25211 z m 11.447891,0.35775 c 0,-0.82149 -0.13117,-0.89437 -1.60986,-0.89437 -1.19248,0 -1.60985,-0.13912 -1.60985,-0.53662 0,-0.38756 0.39749,-0.53662 1.43098,-0.53662 1.28789,0 1.43099,-0.0894 1.43099,-0.89436 0,-0.80493 -0.1431,-0.89437 -1.43099,-0.89437 -0.78704,0 -1.43098,-0.16099 -1.43098,-0.35775 0,-0.19676 0.73512,-0.35774 1.63362,-0.35774 1.57107,0 1.62928,-0.0377 1.52042,-0.98381 l -0.1132,-0.9838 h -3.04084 -3.04085 l -0.10195,3.6669 -0.10195,3.6669 h 3.23223 c 3.20922,0 3.23223,-0.006 3.23223,-0.89436 z m 5.08784,-0.80493 0.11858,-1.6993 0.48011,1.6993 c 0.39412,1.39495 0.62734,1.69929 1.30219,1.69929 0.64424,0 0.93851,-0.32892 1.36027,-1.52042 l 0.53819,-1.52042 0.0282,1.52042 0.0282,1.52042 h 1.43099 1.43099 v -3.77594 -3.77594 l -1.66265,0.10904 c -1.72009,0.11281 -1.95548,0.31206 -2.66458,2.25552 l -0.39159,1.07324 -0.63646,-1.60986 c -0.614,-1.55307 -0.69483,-1.61371 -2.29129,-1.7189 l -1.65484,-0.10904 v 3.77594 3.77594 h 1.23251 c 1.21522,0 1.23417,-0.0238 1.3511,-1.69929 z m 25.95918,-1.96761 -0.10195,-3.6669 h -1.43098 -1.43099 l -0.10195,3.6669 -0.10195,3.6669 h 1.63489 1.63489 z M 71.238379,183.1176 c 5.545682,-2.51935 5.79921,-10.52511 0.42339,-13.36956 -1.300526,-0.68813 -2.176735,-0.81093 -6.597584,-0.9246 l -5.097887,-0.13109 v 7.54622 7.54622 l 4.919013,-0.008 c 3.982474,-0.006 5.192046,-0.13189 6.353068,-0.65933 z m -5.190392,-6.66662 v -3.39859 h 1.270367 c 1.125307,0 1.333117,0.15018 1.819892,1.3152 1.103596,2.64128 -0.07554,5.48198 -2.275493,5.48198 -0.79068,0 -0.814766,-0.10046 -0.814766,-3.39859 z m 22.895773,5.3662 v -1.96761 h -3.219718 c -3.18175,0 -3.219718,-0.0104 -3.219718,-0.87989 0,-0.8552 0.08284,-0.88282 2.951408,-0.98381 l 2.951409,-0.1039 v -1.60986 -1.60986 l -2.951409,-0.1039 c -2.636185,-0.0928 -2.951408,-0.17729 -2.951408,-0.79101 0,-0.6174 0.317499,-0.69758 3.130282,-0.79046 l 3.130281,-0.10336 0.10729,-2.05704 0.107289,-2.05705 H 82.70105 76.422634 v 7.51268 7.51268 h 6.260563 6.260563 z m 13.59437,0 v -1.96761 h -3.219711 c -3.19588,0 -3.21973,-0.007 -3.21973,-0.89436 0,-0.88385 0.0358,-0.89437 3.04085,-0.89437 h 3.040851 v -1.78873 -1.78873 h -3.040851 c -2.80235,0 -3.04085,-0.0561 -3.04085,-0.7155 0,-0.66249 0.2385,-0.71549 3.21973,-0.71549 h 3.219711 v -2.14648 -2.14648 h -6.081691 -6.081693 v 7.51268 7.51268 h 6.081693 6.081691 z m 14.66761,0 v -1.96761 h -3.23231 -3.2323 l 0.43072,-0.80492 c 0.23689,-0.44272 1.69143,-2.03888 3.2323,-3.54703 l 2.80159,-2.74209 v -1.99805 -1.99805 h -6.63616 -6.63617 l 0.10729,2.05705 0.10729,2.05704 2.86197,0.17887 2.86198,0.17888 -1.00794,0.68301 c -0.55436,0.37565 -1.8825,1.80074 -2.95141,3.16685 -1.85235,2.36739 -1.94347,2.58278 -1.94347,4.59375 v 2.10991 h 6.61831 6.61831 z m 13.59436,0 v -1.96761 h -3.21971 c -3.19587,0 -3.21972,-0.007 -3.21972,-0.89436 0,-0.88385 0.0358,-0.89437 3.04084,-0.89437 h 3.04085 v -1.78873 -1.78873 h -3.04085 c -2.80234,0 -3.04084,-0.0561 -3.04084,-0.7155 0,-0.66249 0.2385,-0.71549 3.21972,-0.71549 h 3.21971 v -2.15492 -2.15493 l -6.17112,0.0979 -6.17113,0.0979 -0.0967,7.42324 -0.0967,7.42324 h 6.26782 6.26782 z m 7.52406,-0.80493 c 0.0103,-2.50185 0.0621,-2.7055 0.53088,-2.08595 0.28573,0.37763 0.88349,1.62527 1.32835,2.77254 l 0.80884,2.08595 h 3.31098 c 1.82104,0 3.30974,-0.12074 3.30822,-0.26831 -0.002,-0.14757 -0.78888,-1.83265 -1.7497,-3.74462 -1.5905,-3.16503 -1.68719,-3.49528 -1.07981,-3.68805 2.08818,-0.66276 2.81386,-4.0255 1.21397,-5.62539 -1.29644,-1.29644 -3.40865,-1.69899 -8.91477,-1.69899 h -4.85003 v 7.51268 7.51268 h 3.04084 3.04085 z m -0.0114,-6.68615 c 0,-1.24915 0.0278,-1.27371 1.44221,-1.27371 2.50689,0 2.38204,2.22212 -0.13689,2.43639 -1.2783,0.10873 -1.30532,0.0847 -1.30532,-1.16268 z m -32.77017,-14.54562 c 1.94852,-1.5327 3.60898,-6.07375 4.89255,-13.3802 0.41479,-2.36113 0.79895,-4.33901 0.85368,-4.39529 0.0547,-0.0563 0.36683,0.96187 0.69355,2.26256 0.79041,3.14661 1.90871,5.45297 2.77777,5.7288 2.14639,0.68124 3.8407,-4.27042 5.14445,-15.0348 0.30919,-2.55285 0.61405,-4.69342 0.67745,-4.75682 0.0634,-0.0634 0.2296,0.49593 0.36934,1.24295 0.42941,2.29565 1.65298,5.58292 2.60278,6.99274 1.01622,1.5084 2.43277,1.80715 3.39248,0.71549 1.56715,-1.78261 3.05081,-6.44433 3.86992,-12.15941 0.23234,-1.6211 0.53674,-2.87681 0.67643,-2.79047 0.1397,0.0863 0.47244,0.81886 0.73942,1.62783 0.99214,3.0062 2.66225,2.38764 3.6981,-1.36967 1.2904,-4.68061 1.4879,-6.99243 1.4879,-17.41602 0,-11.299138 -0.46642,-15.535677 -2.06778,-18.781689 -1.41125,-2.860664 -2.65546,-2.077882 -3.84462,2.4188 -0.69571,2.630731 -0.74427,2.589871 -1.59909,-1.34556 -0.70742,-3.256825 -2.09083,-6.451029 -3.27626,-7.564685 -0.81577,-0.766377 -0.94548,-0.787024 -1.84209,-0.29322 -1.80565,0.994459 -3.47258,5.626251 -4.75919,13.224106 l -0.45435,2.68309 -0.32884,-1.60985 c -1.23361,-6.039315 -2.57252,-9.33182 -3.89867,-9.587212 -2.0488,-0.394563 -3.92337,5.867973 -5.08499,16.98787 l -0.44148,4.2261 -0.64851,-2.14648 c -1.94845,-6.448988 -4.16038,-9.015608 -6.63046,-7.693658 -1.23201,0.65935 -3.024481,4.442538 -4.407981,9.303518 -0.084,0.29514 -0.24248,-0.18782 -0.35217,-1.07324 -1.52493,-12.308708 -2.42586,-16.620196 -3.910093,-18.712093 -1.07911,-1.52092 -2.05567,-1.173485 -3.17892,1.130985 -0.51367,1.053841 -1.213674,3.227151 -1.555572,4.82958 -0.973248,4.56148 -1.054551,4.56949 -1.747218,0.17215 -0.643119,-4.082798 -1.985271,-8.739329 -2.94628,-10.221978 -0.285175,-0.439971 -0.918724,-1.062183 -1.407885,-1.382694 -0.821878,-0.538515 -0.956918,-0.538497 -1.779148,2.49e-4 -1.292983,0.847196 -2.300941,3.078533 -3.407994,7.54435 l -0.97657,3.939453 -0.409528,-1.609862 c -1.308953,-5.145518 -2.700668,-6.363424 -3.976281,-3.479689 -3.977236,8.991201 -2.956131,38.935989 1.348576,39.548129 0.666973,0.0948 0.959145,-0.21091 1.672189,-1.74994 l 0.864006,-1.86487 0.196898,1.21333 c 1.66866,10.2826 3.316783,14.62881 5.547383,14.62881 1.082944,0 1.771503,-0.62085 2.682072,-2.41835 0.721637,-1.42453 1.988773,-5.39851 1.995102,-6.257 0.0025,-0.34433 0.133648,-0.62606 0.291353,-0.62606 0.157706,0 0.482512,1.97208 0.72179,4.3824 0.53681,5.40742 1.91164,11.62809 3.009967,13.61914 1.644,2.98026 3.40969,1.53144 4.834223,-3.96671 0.65036,-2.51017 1.16419,-3.05335 1.16419,-1.23072 0,1.93547 1.88197,10.00764 2.90762,12.47134 1.842971,4.42703 3.687621,5.70241 5.820781,4.02447 z M 67.246363,113.19257 c 1.477762,-3.11415 1.656793,-11.89319 0.316171,-15.503878 -1.674201,-4.50913 -3.518087,0.53821 -3.223155,8.822858 0.125596,3.528 0.318461,4.83049 0.913786,6.17113 0.415024,0.93461 0.906285,1.69929 1.09169,1.69929 0.185406,0 0.591084,-0.53523 0.901508,-1.1894 z m 75.601167,-1.62994 c 1.26229,-4.28405 0.5618,-14.016548 -1.10861,-15.402868 -2.38685,-1.98091 -3.50396,13.405408 -1.24319,17.122938 0.91589,1.50606 1.53455,1.05358 2.3518,-1.72007 z"
         id="path2"
         clip-path="url(#clipPath3)"
         transform="matrix(4.2116377,0,0,4.2116377,-200.77629,-266.2682)" /></g></g></svg>
