<?xml version="1.0" encoding="UTF-8" standalone="no"?>
<svg
   id="Layer_1"
   viewBox="0 0 496 512.00001"
   version="1.1"
   sodipodi:docname="kofi_s_logo_nolabel.svg"
   width="496"
   height="512"
   inkscape:version="1.3 (0e150ed6c4, 2023-07-21)"
   xmlns:inkscape="http://www.inkscape.org/namespaces/inkscape"
   xmlns:sodipodi="http://sodipodi.sourceforge.net/DTD/sodipodi-0.dtd"
   xmlns="http://www.w3.org/2000/svg"
   xmlns:svg="http://www.w3.org/2000/svg">
  <sodipodi:namedview
     id="namedview6"
     pagecolor="#ffffff"
     bordercolor="#000000"
     borderopacity="0.25"
     inkscape:showpageshadow="2"
     inkscape:pageopacity="0.0"
     inkscape:pagecheckerboard="0"
     inkscape:deskcolor="#d1d1d1"
     inkscape:zoom="0.777"
     inkscape:cx="420.20592"
     inkscape:cy="232.30373"
     inkscape:window-width="1920"
     inkscape:window-height="991"
     inkscape:window-x="-9"
     inkscape:window-y="-9"
     inkscape:window-maximized="1"
     inkscape:current-layer="Layer_1-3" />
  <defs
     id="defs2">
    <style
       id="style1">.cls-1{fill:url(#linear-gradient);}.cls-2{fill:#fff;}.cls-3{fill:#ff5e5b;}</style>
    <linearGradient
       id="linear-gradient"
       x1="336.01001"
       y1="4124.6401"
       x2="421.72"
       y2="3861.6101"
       gradientTransform="matrix(1,0,0,-1,4.1,4362.59)"
       gradientUnits="userSpaceOnUse">
      <stop
         offset="0"
         stop-color="#ff4ea3"
         id="stop1" />
      <stop
         offset="1"
         stop-color="#ff5e5b"
         id="stop2" />
    </linearGradient>
  </defs>
  <g
     id="Layer_1-2"
     transform="translate(-167.42249,-281.82)">
    <g
       id="Layer_1-3">
      <g
         id="g7"
         transform="matrix(1.1583682,0,0,1.1583682,-163.7768,-41.364083)">
        <g
           id="g5"
           transform="matrix(0.62247648,0,0,0.62247648,188.76672,188.76176)">
          <path
             class="cls-2"
             d="m 683.95,523.77 c -23.89,2.65 -43.75,1.28 -43.75,1.28 V 375.41 h 30.49 c 19.86,0 38.44,7.97 51.62,23.9 9.24,10.62 15.93,25.17 15.92,46.41 0,48.96 -25.17,68.82 -54.28,78.06 z m 128.51,-104.6 c -9.24,-46.41 -33.13,-75.51 -59.58,-92.72 -26.45,-18.58 -58.3,-27.83 -90.06,-27.83 l -455.8,-0.02 c -15.93,0 -22.52,15.93 -22.52,23.89 v 5.31 c 0,0 -1.29,201.35 1.26,309.99 3.93,63.61 67.54,63.61 67.54,63.61 0,0 207.94,0.01 308.62,-1.26 5.31,0 9.24,0 14.55,-1.28 56.93,-14.55 62.24,-67.54 62.24,-96.74 114.05,5.12 194.87,-75.69 173.74,-182.96 z"
             id="path2" />
          <g
             id="g4">
            <path
               d="m 828.94,416.04 v -0.02 l -0.02,-0.1 -0.02,-0.12 C 817.58,359.06 786.44,328.33 762.29,312.55 734,292.75 698.68,281.84 662.83,281.84 l -455.8,-0.02 c -25.63,0 -39.29,23.62 -39.29,40.67 v 5.2 c -0.01,2.02 -1.26,202.77 1.27,310.49 0,0.21 0.01,0.43 0.03,0.64 2.53,40.94 25.68,60.51 44.67,69.72 19.61,9.51 38.81,9.63 39.62,9.64 h 0.08 c 8.52,0 209.91,-0.01 308.62,-1.26 5.73,0 11.15,0 18.37,-1.74 l 0.25,-0.06 c 30.03,-7.68 51.43,-25.25 63.6,-52.23 5.75,-12.75 9.23,-27.12 10.59,-43.84 27.55,-0.7 53.46,-6.14 77.07,-16.2 24.87,-10.6 45.93,-25.78 62.58,-45.13 32.7,-38 44.94,-88.31 34.46,-141.68 z M 202.53,637.06 c -2.47,-105.83 -1.3,-300.97 -1.25,-309.27 v -5.21 c 0.07,-0.47 1.26,-7.22 5.74,-7.22 l 455.8,0.02 c 29.12,0 57.68,8.8 80.41,24.78 0.17,0.12 0.33,0.23 0.5,0.34 27.41,17.83 45,45.39 52.27,81.91 8.49,43.08 -1.09,83.36 -26.95,113.41 -29.14,33.87 -76.36,51.93 -129.57,49.53 -4.55,-0.21 -9.05,1.48 -12.35,4.63 -3.29,3.15 -5.18,7.57 -5.18,12.12 0,45.59 -16.21,71.91 -49.46,80.45 -3.3,0.79 -5.69,0.79 -10.44,0.79 h -0.33 c -87.58,1.11 -256.78,1.24 -306.56,1.26 h -1.81 c -0.12,0 -12.58,-0.24 -25.02,-6.27 -15.82,-7.68 -24.51,-21.57 -25.8,-41.3 z"
               id="path3" />
            <path
               d="m 639.03,541.78 c 0.59,0.04 6.03,0.4 14.53,0.4 11,0 21.84,-0.59 32.23,-1.74 1.09,-0.12 2.18,-0.35 3.23,-0.68 43.77,-13.9 65.97,-45.54 65.97,-94.05 0,-22.75 -6.71,-42.03 -19.88,-57.22 -15.98,-19.25 -38.87,-29.85 -64.44,-29.85 h -30.48 c -9.25,0 -16.77,7.52 -16.78,16.77 v 149.64 c 0,8.78 6.85,16.13 15.61,16.73 z M 656.97,508.6 V 392.18 h 13.71 c 15.45,0 29.19,6.33 38.7,17.82 l 0.26,0.31 c 7.94,9.13 11.8,20.7 11.8,35.39 0,33.49 -12.28,51.93 -41.03,61.57 -7.49,0.78 -15.36,1.22 -23.44,1.32 z"
               id="path4" />
          </g>
        </g>
        <path
           class="cls-3"
           d="m 442.96121,572.49984 c 3.30535,1.64956 4.95492,0 4.95492,0 0,0 45.35363,-41.2453 65.97628,-65.11104 18.11406,-21.41942 18.97308,-56.91303 -11.56562,-70.07218 -31.33546,-13.2214 -56.91924,15.66151 -56.91924,15.66151 -22.27844,-24.72477 -56.06024,-23.07521 -71.72797,-6.6107 -15.66773,16.4645 -9.91605,44.55064 1.64956,61.01514 10.7066,14.87096 58.56259,57.71602 65.97006,64.32672 0,-0.85902 0.85902,0 1.64956,0.79677 z"
           id="path5"
           style="stroke-width:0.622476" />
        <path
           class="cls-1"
           d="m 444.49251,573.71989 c 1.8363,0.36726 3.42984,-1.22628 3.42984,-1.22628 0,0 45.35364,-41.24529 65.97628,-65.11104 18.11407,-21.41941 18.97309,-56.91302 -11.56561,-70.07218 -31.33547,-13.2214 -56.91925,15.66151 -56.91925,15.66151 -22.27843,-24.72476 -56.06023,-23.0752 -71.72796,-6.6107 -15.66774,16.4645 -9.91605,44.55064 1.64956,61.01515 10.09657,14.01817 60.71013,59.55232 67.00959,65.24176 0.61003,0.54778 1.34455,0.97728 2.14132,1.10178 z"
           id="path6"
           style="fill:#000000;fill-opacity:1;stroke-width:0.622476" />
      </g>
    </g>
  </g>
</svg>
